<svg width="30" height="30" viewBox="0 0 30 30" fill="none" xmlns="http://www.w3.org/2000/svg">
<path d="M3.75 7.75C3.75 5.54086 5.54086 3.75 7.75 3.75H22.25C24.4591 3.75 26.25 5.54086 26.25 7.75V22.25C26.25 24.4591 24.4591 26.25 22.25 26.25H7.75C5.54086 26.25 3.75 24.4591 3.75 22.25V7.75Z" stroke="#222222" stroke-width="2"/>
<path fill-rule="evenodd" clip-rule="evenodd" d="M6 13.4C6 11.1598 6 10.0397 6.43597 9.18404C6.81947 8.43139 7.43139 7.81947 8.18404 7.43597C9.03969 7 10.1598 7 12.4 7H17.6C19.8402 7 20.9603 7 21.816 7.43597C22.5686 7.81947 23.1805 8.43139 23.564 9.18404C24 10.0397 24 11.1598 24 13.4V14.6C24 16.8402 24 17.9603 23.564 18.816C23.1805 19.5686 22.5686 20.1805 21.816 20.564C20.9603 21 19.8402 21 17.6 21H10.4142C10.149 21 9.89464 21.1054 9.70711 21.2929L7.70711 23.2929C7.07714 23.9229 6 23.4767 6 22.5858V21V16V13.4ZM12 11C11.4477 11 11 11.4477 11 12C11 12.5523 11.4477 13 12 13H18C18.5523 13 19 12.5523 19 12C19 11.4477 18.5523 11 18 11H12ZM12 15C11.4477 15 11 15.4477 11 16C11 16.5523 11.4477 17 12 17H15C15.5523 17 16 16.5523 16 16C16 15.4477 15.5523 15 15 15H12Z" fill="#222222"/>
</svg>
