<svg width="30" height="30" viewBox="0 0 30 30" fill="none" xmlns="http://www.w3.org/2000/svg">
<path d="M3.75 7.75C3.75 5.54086 5.54086 3.75 7.75 3.75H22.25C24.4591 3.75 26.25 5.54086 26.25 7.75V22.25C26.25 24.4591 24.4591 26.25 22.25 26.25H7.75C5.54086 26.25 3.75 24.4591 3.75 22.25V7.75Z" stroke="#222222" stroke-width="2"/>
<circle cx="15" cy="11" r="2.5" stroke="#222222" stroke-linecap="round"/>
<path d="M16.7679 9.5C16.9657 9.15743 17.2607 8.88121 17.6154 8.70625C17.9702 8.5313 18.3689 8.46548 18.7611 8.51711C19.1532 8.56874 19.5213 8.73551 19.8187 8.99632C20.1161 9.25713 20.3295 9.60028 20.4319 9.98236C20.5342 10.3644 20.521 10.7683 20.3939 11.1429C20.2667 11.5174 20.0313 11.8459 19.7175 12.0867C19.4037 12.3275 19.0255 12.4698 18.6308 12.4957C18.2361 12.5216 17.8426 12.4298 17.5 12.2321" stroke="#222222"/>
<path d="M13.2321 9.5C13.0343 9.15743 12.7393 8.88121 12.3846 8.70625C12.0298 8.5313 11.6311 8.46548 11.2389 8.51711C10.8468 8.56874 10.4787 8.73551 10.1813 8.99632C9.88391 9.25713 9.67053 9.60028 9.56815 9.98236C9.46577 10.3644 9.47899 10.7683 9.60614 11.1429C9.73329 11.5174 9.96866 11.8459 10.2825 12.0867C10.5963 12.3275 10.9745 12.4698 11.3692 12.4957C11.7639 12.5216 12.1574 12.4298 12.5 12.2321" stroke="#222222"/>
<path d="M15 15.5C19.0802 15.5 20.1335 18.8022 20.4054 20.507C20.4924 21.0524 20.0523 21.5 19.5 21.5H10.5C9.94771 21.5 9.50763 21.0524 9.59461 20.507C9.86649 18.8022 10.9198 15.5 15 15.5Z" stroke="#222222" stroke-linecap="round"/>
<path d="M22.2965 18.4162L21.8115 18.5377L21.8115 18.5377L22.2965 18.4162ZM16.0871 15.5859L15.7178 15.2488L15.0974 15.9283L16.0051 16.0791L16.0871 15.5859ZM20.1813 19.5L19.701 19.639L19.8055 20H20.1813V19.5ZM18.5 15C19.5277 15 20.2495 15.5027 20.7783 16.2069C21.3177 16.9253 21.6344 17.8306 21.8115 18.5377L22.7816 18.2948C22.5904 17.5315 22.2328 16.4787 21.578 15.6065C20.9126 14.7203 19.9202 14 18.5 14V15ZM16.4563 15.923C16.9567 15.375 17.6107 15 18.5 15V14C17.2828 14 16.3735 14.5306 15.7178 15.2488L16.4563 15.923ZM16.0051 16.0791C18.3056 16.4614 19.2789 18.1801 19.701 19.639L20.6616 19.361C20.1905 17.7326 19.019 15.5663 16.1691 15.0927L16.0051 16.0791ZM21.395 19H20.1813V20H21.395V19ZM21.8115 18.5377C21.8653 18.7526 21.7075 19 21.395 19V20C22.2657 20 23.0152 19.2277 22.7816 18.2948L21.8115 18.5377Z" fill="#222222"/>
<path d="M13.9129 15.5859L13.9949 16.0791L14.9026 15.9283L14.2822 15.2488L13.9129 15.5859ZM7.70345 18.4162L8.18847 18.5377L7.70345 18.4162ZM9.8187 19.5V20H10.1945L10.299 19.639L9.8187 19.5ZM11.5 15C12.3893 15 13.0433 15.375 13.5437 15.923L14.2822 15.2488C13.6265 14.5306 12.7172 14 11.5 14V15ZM8.18847 18.5377C8.36556 17.8306 8.6823 16.9253 9.22168 16.2069C9.7505 15.5027 10.4723 15 11.5 15V14C10.0798 14 9.08744 14.7203 8.42201 15.6065C7.76715 16.4787 7.40957 17.5315 7.21843 18.2948L8.18847 18.5377ZM8.605 19C8.29249 19 8.13467 18.7526 8.18847 18.5377L7.21843 18.2948C6.98479 19.2277 7.73426 20 8.605 20V19ZM9.8187 19H8.605V20H9.8187V19ZM10.299 19.639C10.7211 18.1801 11.6944 16.4614 13.9949 16.0791L13.8309 15.0927C10.981 15.5663 9.80952 17.7326 9.3384 19.361L10.299 19.639Z" fill="#222222"/>
</svg>
